<?xml version="1.0" encoding="UTF-8" standalone="no"?>
<!DOCTYPE svg PUBLIC "-//W3C//DTD SVG 1.1//EN" "http://www.w3.org/Graphics/SVG/1.1/DTD/svg11.dtd">
<!-- Created with Vectornator (http://vectornator.io/) -->
<svg height="100%" stroke-miterlimit="10" style="fill-rule:nonzero;clip-rule:evenodd;stroke-linecap:round;stroke-linejoin:round;" version="1.1" viewBox="0 0 1024 1024" width="100%" xml:space="preserve" xmlns="http://www.w3.org/2000/svg" xmlns:vectornator="http://vectornator.io" xmlns:xlink="http://www.w3.org/1999/xlink">
<defs>
<clipPath id="TextBounds">
<rect height="718.033" width="273.577" x="660.202" y="62.422"/>
</clipPath>
</defs>
<g id="Layer-1" vectornator:layerName="Layer 1">
<g fill="#000000" opacity="1" stroke="none">
<path clip-path="url(#TextBounds)" d="M705.94 92.872L705.94 174.922L713.14 174.922L713.14 137.422L749.365 137.422L749.365 174.922L756.49 174.922L756.49 92.872L749.365 92.872L749.365 129.022L713.14 129.022L713.14 92.872L705.94 92.872Z"/>
<path clip-path="url(#TextBounds)" d="M779.065 108.322L783.94 101.722L809.515 101.722L814.765 108.472L814.765 159.472L809.515 165.922L783.79 165.922L779.065 159.922L779.065 108.322ZM772.69 103.522C772.24 104.122 771.49 105.172 771.49 106.522L771.49 161.872C771.49 162.622 771.715 164.122 772.615 165.172L779.74 173.722C780.04 174.172 781.09 174.922 782.29 174.922L811.015 174.922C811.615 174.922 812.665 174.622 813.565 173.572L820.99 164.572C821.44 164.122 822.04 162.922 822.04 161.422L822.04 106.672C822.04 105.922 821.965 104.572 821.065 103.522L813.79 94.222C813.49 93.622 812.365 92.872 811.165 92.872L782.29 92.872C781.54 92.872 780.565 93.022 779.665 94.222L772.69 103.522Z"/>
<path clip-path="url(#TextBounds)" d="M837.04 92.872L837.04 101.872L858.64 101.872L858.64 175.072L865.915 175.072L865.915 101.872L887.59 101.872L887.59 92.872L837.04 92.872Z"/>
<path clip-path="url(#TextBounds)" d="M698.665 183.922L895.315 183.922L895.315 192.922L698.665 192.922L698.665 183.922Z"/>
<path clip-path="url(#TextBounds)" d="M713.14 288.472L713.14 251.872L736.765 251.872L749.365 266.872L749.365 272.722L736.69 288.472L713.14 288.472ZM713.14 297.772L738.265 297.772C739.24 297.772 740.065 297.022 740.815 296.122L755.515 277.672C756.265 276.772 756.49 275.722 756.49 274.522L756.49 264.922C756.49 263.722 756.19 262.822 755.44 261.922L740.815 244.072C740.065 243.172 739.24 242.872 738.265 242.872L705.94 242.872L705.94 325.222L713.14 325.222L713.14 297.772Z"/>
<path clip-path="url(#TextBounds)" d="M779.065 258.322L783.94 251.722L809.515 251.722L814.765 258.472L814.765 309.472L809.515 315.922L783.79 315.922L779.065 309.922L779.065 258.322ZM772.69 253.522C772.24 254.122 771.49 255.172 771.49 256.522L771.49 311.872C771.49 312.622 771.715 314.122 772.615 315.172L779.74 323.722C780.04 324.172 781.09 324.922 782.29 324.922L811.015 324.922C811.615 324.922 812.665 324.622 813.565 323.572L820.99 314.572C821.44 314.122 822.04 312.922 822.04 311.422L822.04 256.672C822.04 255.922 821.965 254.572 821.065 253.522L813.79 244.222C813.49 243.622 812.365 242.872 811.165 242.872L782.29 242.872C781.54 242.872 780.565 243.022 779.665 244.222L772.69 253.522Z"/>
<path clip-path="url(#TextBounds)" d="M837.04 242.872L837.04 251.872L858.64 251.872L858.64 325.072L865.915 325.072L865.915 251.872L887.59 251.872L887.59 242.872L837.04 242.872Z"/>
<path clip-path="url(#TextBounds)" d="M698.665 333.922L895.315 333.922L895.315 342.922L698.665 342.922L698.665 333.922Z"/>
<path clip-path="url(#TextBounds)" d="M673.165 474.922L680.365 474.922L680.365 406.222L716.59 452.422L716.59 474.922L723.715 474.922L723.715 392.872L716.59 392.872L716.59 438.622L680.365 392.872L673.165 392.872L673.165 474.922Z"/>
<path clip-path="url(#TextBounds)" d="M745.54 447.772L782.44 447.772L782.44 424.972C782.44 424.222 782.29 423.022 781.39 421.972L774.265 412.672C773.965 412.222 772.84 411.022 771.64 411.022L749.665 411.022C749.065 411.022 747.865 411.622 746.965 412.672L739.615 422.122C739.315 422.572 738.415 423.622 738.415 425.122L738.415 461.422C738.415 462.172 738.415 463.522 739.315 464.572L746.89 473.572C747.19 474.022 748.24 474.772 749.29 474.772L782.74 474.772L782.74 466.372L750.715 466.372L745.54 459.622L745.54 447.772ZM745.69 438.472L745.69 426.922L751.015 420.172L770.215 420.172L775.465 426.772L775.465 438.472L745.69 438.472Z"/>
<path clip-path="url(#TextBounds)" d="M827.74 443.122L848.29 417.322L843.19 411.022L821.29 438.472L811.465 438.472L811.465 383.572L803.965 383.572L803.965 475.072L811.465 475.072L811.465 447.472L821.14 447.472L842.665 475.072L847.915 468.772L827.74 443.122Z"/>
<path clip-path="url(#TextBounds)" d="M876.79 426.322L881.965 419.722L901.765 419.722L906.565 426.322L906.565 459.622L901.69 465.922L881.965 465.922L876.79 459.622L876.79 426.322ZM870.715 421.372C870.415 421.822 869.515 422.872 869.515 424.372L869.515 461.422C869.515 462.322 869.59 463.672 870.565 464.722L878.065 473.422C878.515 473.872 879.415 474.472 880.465 474.472L903.115 474.472L903.565 474.472C904.165 474.472 904.99 474.397 905.665 473.422L912.715 464.572C913.015 464.122 913.84 462.922 913.84 461.422L913.84 424.672C913.84 423.922 913.54 422.722 912.79 421.822L906.04 412.372C905.59 411.772 904.54 410.872 903.34 410.872L880.465 410.872C880.015 410.872 878.965 410.872 878.065 411.922L870.715 421.372Z"/>
<path clip-path="url(#TextBounds)" d="M665.89 483.922L928.09 483.922L928.09 492.922L665.89 492.922L665.89 483.922Z"/>
</g>
</g>
<g id="Layer-2" vectornator:layerName="Layer 2">
<path d="M605.663 82.256" fill="none" opacity="1" stroke="#457f0b" stroke-linecap="butt" stroke-linejoin="round" stroke-width="10"/>
<path d="M634.242 35.615L620.663 547.861L955.021 537.697L966.073 50.3413L634.242 35.615Z" fill="none" opacity="1" stroke="#000000" stroke-linecap="butt" stroke-linejoin="round" stroke-width="10"/>
<path d="M64.6478 399.922" fill="none" opacity="1" stroke="#000000" stroke-linecap="butt" stroke-linejoin="round" stroke-width="10"/>
</g>
<g id="Layer-3" vectornator:layerName="Layer 3">
<path d="M869.853 855.591C1062.3 835.518 1018.15 749.734 728.548 766.079C438.949 782.423 644.401 879.105 869.853 855.591Z" fill="none" opacity="1" stroke="#000000" stroke-linecap="butt" stroke-linejoin="round" stroke-width="10"/>
<g opacity="1">
<path d="M700.281 580.031C692.409 588.081 684.31 595.93 676.719 604.25C672.311 609.081 668.193 614.114 664.188 619.281C658.796 626.236 653.378 633.555 652.906 642.688C652.141 657.483 662.397 670.267 669.344 682.438C672.787 688.47 676.024 694.789 676.188 701.875C676.257 704.891 675.24 707.881 674.094 710.625C672.941 713.383 671.584 716.046 670.188 718.688C667.299 724.152 663.905 729.285 659.906 734C658.3 735.933 658.567 738.8 660.5 740.406C662.433 742.012 665.3 741.745 666.906 739.812C671.229 734.51 674.87 728.787 677.906 722.656C681.019 716.371 684.432 709.569 684.219 702.375C684.087 697.933 682.71 693.584 680.969 689.531C676.537 679.214 668.664 670.934 663.031 661.312C659.725 655.665 656.921 649.459 656.906 642.781C656.887 633.979 662.268 626.699 667.062 619.781C676.931 605.543 688.823 592.972 700.281 580.031Z" fill="#000000" stroke="none"/>
</g>
<g opacity="1">
<path d="M761.781 587.938C760.436 591.463 758.549 594.846 758.344 598.688C758.14 602.495 758.99 606.281 760.062 609.906C761.688 615.399 763.915 620.723 765.219 626.312C767.199 634.802 767.737 643.503 767.125 652.188C766.41 662.343 764.143 672.425 759.938 681.719C758.613 684.646 757.088 687.489 755.5 690.281C753.575 693.667 751.462 696.941 750.125 700.625C746.513 710.578 745.787 721.331 743.75 731.656C743.292 734.127 744.935 736.511 747.406 736.969C749.877 737.427 752.261 735.783 752.719 733.312C754.457 723.284 754.938 712.936 757.781 703.125C759.009 698.889 761.265 695.18 763.188 691.25C764.079 689.427 764.809 687.531 765.5 685.625C769.524 674.525 771.314 662.882 771.25 651.094C771.198 641.621 769.719 632.289 766.781 623.281C765.01 617.849 762.368 612.758 760.625 607.312C759.631 604.207 758.871 600.94 759.031 597.656C759.196 594.29 760.789 591.101 761.781 587.938Z" fill="#000000" stroke="none"/>
</g>
<g opacity="1">
<path d="M878.062 591.5C876.905 609.905 880.64 628.077 881 646.438C881.266 660.025 879.423 673.85 872 685.531C870.238 688.304 868.183 691.066 865.125 692.5C862.758 693.61 860.099 693.876 857.562 694.375C854.12 695.052 850.485 696.109 847.5 698.031C845.715 699.181 844.215 700.7 842.719 702.188C841.158 703.739 839.621 705.261 838.156 706.906C830.075 715.983 824.337 726.634 819.812 737.844C818.895 740.183 820.067 742.833 822.406 743.75C824.746 744.667 827.364 743.527 828.281 741.188C832.277 730.685 837.266 720.97 844.344 712.188C845.648 710.569 847.022 709.015 848.375 707.438C849.364 706.285 850.344 704.985 851.594 704.094C852.99 703.098 854.706 702.522 856.312 701.969C859.509 700.868 862.878 700.321 866 699C871.069 696.856 874.094 692.95 876.656 688.281C883.939 675.01 885.082 660.069 883.844 645.25C882.341 627.274 877.874 609.615 878.062 591.5Z" fill="#000000" stroke="none"/>
</g>
<g opacity="1">
<path d="M922.969 559.469C925.707 574.658 929.139 589.983 928.938 605.5C928.797 616.284 926.849 626.937 924.25 637.375C922.78 643.279 921.119 649.168 919.281 654.969C917.214 661.495 914.893 667.95 912.062 674.188C908.416 682.221 903.848 689.811 900.594 698.031C897.897 704.845 895.602 712.023 894.688 719.312C893.651 727.567 894.376 735.944 896.906 743.875C897.686 746.32 898.573 748.776 899.812 751.031C901.647 754.369 904.229 757.244 906.375 760.375C907.815 762.435 910.659 762.94 912.719 761.5C914.778 760.06 915.283 757.216 913.844 755.156C911.824 752.317 909.361 749.719 907.625 746.688C906.398 744.544 905.55 742.128 904.812 739.781C901.482 729.191 902.187 717.718 905.156 707.125C907.865 697.462 912.227 688.391 916.062 679.156C918.77 672.638 920.929 665.901 922.781 659.094C924.663 652.181 926.321 645.182 927.719 638.156C929.857 627.408 931.309 616.45 930.969 605.469C930.486 589.858 926.394 574.621 922.969 559.469Z" fill="#000000" stroke="none"/>
</g>
<path d="M583.649 803.725C583.649 803.725 571.11 937.327 643.225 984.068C671.952 1002.69 920.902 1016.47 946.739 972.122C972.576 927.776 986.5 808.126 986.5 808.126" fill="none" opacity="1" stroke="#000000" stroke-linecap="butt" stroke-linejoin="round" stroke-width="10"/>
<g opacity="1">
<path d="M211.156 253.781C207.385 252.785 205.539 257.465 203.688 259.812C202.87 260.849 201.77 261.661 200.812 262.562C199.29 263.996 197.792 265.459 196.312 266.938C192.204 271.04 188.343 275.351 184.594 279.781C177.747 287.87 170.635 295.71 163.625 303.656C159.54 308.287 155.611 313.071 151.656 317.812C147.313 323.02 143.191 328.374 139.312 333.938C137.118 337.085 134.825 340.271 133.062 343.688C128.315 352.891 127.756 363.419 125 373.25C124.34 375.675 125.763 378.183 128.188 378.844C130.612 379.504 133.121 378.081 133.781 375.656C135.092 370.708 135.899 365.676 136.875 360.656C137.668 356.577 138.59 352.44 140.281 348.625C141.632 345.578 143.534 342.788 145.344 340C147.727 336.328 150.2 332.714 152.75 329.156C161.817 316.505 171.83 304.595 181.5 292.406C185.971 286.771 190.231 280.933 194.875 275.438C198.404 271.261 202.169 267.334 206 263.438C207.143 262.275 207.902 260.845 208.75 259.469C209.197 258.744 209.627 258.05 210.281 257.5C210.517 257.555 210.771 257.76 210.938 257.906C211.448 258.353 211.786 258.972 212.031 259.594C212.736 261.377 212.956 263.303 213.406 265.156C213.692 266.332 214.097 267.424 214.5 268.562C215.422 271.165 216.15 273.864 216.969 276.5C218.296 280.773 219.648 285.041 220.875 289.344C223.605 298.918 226.075 308.548 228.562 318.188C231.462 329.424 234.349 340.67 237.25 351.906C234.675 340.166 232.136 328.428 229.562 316.688C226.793 304.052 223.968 291.436 220.625 278.938C219.729 275.589 218.911 272.21 217.969 268.875C217.549 267.391 216.989 265.953 216.688 264.438C215.991 260.943 215.859 256.412 212.406 254.344C212.039 254.124 211.573 253.891 211.156 253.781Z" fill="#000000" stroke="none"/>
</g>
<g opacity="1">
<path d="M487.031 289.094C484.195 288.869 481.039 290.664 478.938 292.156C478.415 292.527 477.825 292.958 477.312 293.344C475.88 294.422 474.517 295.467 473.344 296.844C472.14 298.256 471.179 299.854 469.812 301.125C463.844 306.676 457.18 311.71 449.844 315.312C445.976 317.212 441.951 318.812 438 320.531C430.596 323.753 423.18 326.882 415.719 329.969C408.665 332.888 401.651 335.934 394.594 338.844C383.356 343.478 372.101 348.082 360.969 352.969C353.118 356.415 345.306 359.943 337.562 363.625C333.426 365.592 329.027 367.411 325.219 369.969C319.706 373.671 315.29 378.756 310.25 383.031C308.342 384.667 308.114 387.53 309.75 389.438C311.386 391.345 314.248 391.573 316.156 389.938C318.669 387.762 321.044 385.428 323.438 383.125C325.575 381.068 327.766 379.026 330.219 377.344C332.222 375.97 334.427 374.958 336.594 373.875C338.985 372.68 341.375 371.507 343.781 370.344C352.242 366.255 360.761 362.3 369.312 358.406C380.749 353.199 392.191 347.98 403.688 342.906C415.634 337.634 427.493 332.213 439.281 326.594C443.297 324.68 447.377 322.826 451.344 320.812C459.439 316.703 466.734 310.981 473.156 304.594C474.904 302.855 476.006 300.629 477.719 298.875C478.646 297.926 479.804 297.133 480.844 296.312C481.962 295.43 483.101 294.5 484.406 293.906C484.982 293.644 486.624 293.039 487.25 293.469C488.304 294.191 488.772 295.819 489.25 296.906C489.744 298.03 490.303 299.105 490.75 300.25C491.421 301.969 491.955 303.767 492.375 305.562C493.124 308.764 493.574 312.006 494.094 315.25C495.126 321.687 496.043 328.167 497.312 334.562C501.131 353.803 505.322 372.963 509.219 392.188C513.115 411.41 516.732 430.655 519.969 450C516.469 425.308 512.278 400.759 507.844 376.219C506.1 366.568 504.328 356.903 502.594 347.25C501.626 341.862 500.589 336.503 499.75 331.094C498.826 325.134 498.156 319.105 497.375 313.125C496.821 308.883 496.248 304.637 495 300.531C494.455 298.739 493.704 297.042 493 295.312C492.232 293.426 491.427 291.316 489.719 290.062C488.892 289.456 487.977 289.169 487.031 289.094Z" fill="#000000" stroke="none"/>
</g>
<g opacity="1">
<path d="M289.812 373.5C297.527 381.477 305.413 389.322 312.781 397.625C317.413 402.844 321.799 408.298 326.031 413.844C332.757 422.657 339.045 431.777 344.906 441.188C348.458 446.89 351.741 452.758 355.062 458.594C356.041 460.313 357.057 462.01 358 463.75C359.503 466.525 360.886 469.357 362.344 472.156C367.084 481.262 371.668 490.442 376 499.75C377.086 502.016 379.796 502.961 382.062 501.875C384.329 500.789 385.273 498.079 384.188 495.812C379.572 486.452 374.795 477.168 369.469 468.188C367.828 465.42 366.063 462.719 364.344 460C363.057 457.966 361.85 455.889 360.531 453.875C357.236 448.844 353.704 443.971 350.188 439.094C341.524 427.078 332.182 415.5 322.156 404.594C312.017 393.564 300.831 383.629 289.812 373.5Z" fill="#000000" stroke="none"/>
</g>
<g opacity="1">
<path d="M281.062 316.188C286.952 321.666 293.521 326.465 298.938 332.438C302.31 336.157 305.122 340.4 308.094 344.438C312.858 350.909 317.565 357.409 322.25 363.938C335.635 382.588 348.826 401.38 361.625 420.438C364.824 425.201 367.915 430.047 371.156 434.781C372.775 437.146 374.42 439.483 376 441.875C379.162 446.662 382.283 451.479 385.469 456.25C388.015 460.064 390.578 463.874 393.125 467.688C394.531 469.793 396.123 471.847 397.188 474.156C398.416 476.819 399.08 479.698 399.781 482.531C400.323 484.722 400.91 486.911 401.594 489.062C402.374 491.451 404.924 492.749 407.312 491.969C409.701 491.188 410.999 488.607 410.219 486.219C408.449 480.964 407.601 475.359 405.156 470.344C403.592 467.134 401.294 464.289 399.25 461.375C396.608 457.608 393.965 453.863 391.281 450.125C388.262 445.919 385.145 441.785 382.062 437.625C380.35 435.313 378.696 432.949 377 430.625C372.595 424.591 367.988 418.699 363.469 412.75C349.906 394.9 336.171 377.19 322.281 359.594C317.654 353.731 313.023 347.884 308.344 342.062C305.533 338.567 302.844 334.915 299.688 331.719C293.998 325.958 287.205 321.432 281.062 316.188Z" fill="#000000" stroke="none"/>
</g>
<g opacity="1">
<path d="M253.125 372.969C263.25 389.599 272.867 406.493 282.562 423.375C287.881 432.635 293.166 441.909 298.719 451.031C300.169 453.413 301.762 455.706 303.25 458.062C304.497 460.036 305.706 462.025 307 463.969C312.187 471.759 317.849 479.246 323.719 486.531C325.321 488.467 328.189 488.727 330.125 487.125C332.061 485.523 332.321 482.655 330.719 480.719C325.079 474.081 319.739 467.259 314.406 460.375C312.725 458.205 310.969 456.064 309.312 453.875C307.925 452.041 306.647 450.131 305.281 448.281C301.446 443.09 297.606 437.915 293.906 432.625C284.352 418.963 275.222 405.001 265.844 391.219C261.669 385.083 257.407 379.03 253.125 372.969Z" fill="#000000" stroke="none"/>
</g>
<g opacity="1">
<path d="M140.938 409.125C139.181 409.367 137.678 410.618 137.188 412.438C133.799 425.329 132.141 438.673 128.031 451.375C125.907 457.94 123.332 464.319 120.844 470.75C118.89 475.8 117.071 480.911 115.312 486.031C114.765 487.625 114.126 489.204 113.625 490.812C113.126 492.414 112.758 494.063 112.344 495.688C111.932 497.303 111.482 498.903 111.125 500.531C110.079 505.3 109.526 510.235 109.094 515.094C107.753 530.152 108.459 545.285 107.156 560.344C105.517 579.293 101.117 598.408 104.406 617.438C105.479 623.645 107.45 629.602 110.094 635.312C113.307 642.252 117.396 648.747 120.906 655.531C125.228 663.883 128.01 672.985 131.438 681.719C128.287 672.85 125.778 663.64 121.719 655.125C118.444 648.255 114.599 641.672 111.625 634.656C109.237 629.024 107.501 623.161 106.656 617.094C104.082 598.607 109.008 580.33 111.25 562.094C112.046 555.617 112.562 549.106 112.969 542.594C113.763 529.866 114.277 517.035 117.156 504.562C117.704 502.192 118.436 499.895 119.125 497.562C119.575 496.039 119.982 494.48 120.469 492.969C121.448 489.926 122.614 486.869 123.812 483.906C127.535 474.704 131.912 465.787 135.281 456.438C137.061 451.498 138.532 446.474 139.781 441.375C141.946 432.542 143.545 423.585 145.969 414.812C146.623 412.386 145.176 409.904 142.75 409.25C142.143 409.086 141.523 409.044 140.938 409.125Z" fill="#000000" stroke="none"/>
</g>
<g opacity="1">
<path d="M258.156 527.188C256.556 527.334 255.009 527.701 253.5 528.25C252.247 528.706 251.036 529.26 249.906 529.969C245.322 532.845 242.957 537.671 240.312 542.188C237.83 546.428 235.488 550.829 234.281 555.625C233.746 557.752 233.438 559.93 233.5 562.125C233.717 569.808 238.391 576.187 243.438 581.594C245.525 583.83 247.732 586.01 250 588.062C265.362 601.966 285.476 611.741 306.062 614.5C315.313 615.74 325.397 615.825 333.375 610.281C339.213 606.224 342.295 600.525 342.406 593.375C342.47 589.297 341.626 585.288 340.562 581.375C339.897 578.928 339.367 576.363 338.125 574.125C336.349 570.925 333.308 568.429 330.562 566.094C330.5 566.041 330.438 565.99 330.375 565.938C331.948 564.09 331.829 561.319 330.031 559.656C329.109 558.814 329.17 559.672 329.094 558.812C329.056 558.391 328.494 558.26 328.188 557.969C327.868 557.665 327.535 557.338 327.219 557.031C325.856 555.71 324.524 554.379 323.188 553.031C319.168 548.978 315.161 544.894 310.812 541.188C308.192 538.954 305.4 536.765 302.344 535.156C295.023 531.303 286.366 530.924 278.312 529.969C275.963 529.69 273.627 529.339 271.312 528.844C266.988 527.919 262.619 526.778 258.156 527.188ZM260.25 534.469C262.871 534.595 265.508 535.391 268 536.062C271.057 536.886 274.088 537.562 277.219 538.031C281.647 538.694 286.12 539.169 290.5 540.125C292.895 540.648 295.283 541.28 297.5 542.344C299.493 543.3 301.285 544.683 303 546.062C308.35 550.367 313.036 555.463 317.812 560.375C319.157 561.757 320.525 563.154 321.906 564.5C322.237 564.822 321.886 564.484 323.844 566.344C325.689 568.05 328.575 567.939 330.281 566.094C330.291 566.083 330.302 566.074 330.312 566.062C330.367 566.112 330.414 566.169 330.469 566.219C332.775 568.307 335.219 570.44 336.938 573.062C338.616 575.623 339.144 578.632 339.844 581.562C341.827 589.865 342.663 599.02 336.344 605.656C334.167 607.942 331.361 609.814 328.438 611C326.318 611.86 324.042 612.332 321.781 612.625C317.118 613.229 312.51 612.911 307.875 612.219C288.084 609.263 268.713 599.344 254.219 585.625C252.582 584.076 251.002 582.463 249.469 580.812C244.786 575.774 239.201 569.419 239.312 562.094C239.413 555.505 243.425 549.668 246.844 544.344C249.576 540.088 252.145 535.473 257.625 534.594C258.495 534.454 259.376 534.427 260.25 534.469Z" fill="#000000" stroke="none"/>
</g>
<g opacity="1">
<path d="M497.969 536.094C496.913 536.116 495.859 536.276 494.844 536.562C493.433 536.96 492.115 537.614 490.844 538.344C490.798 538.276 490.8 538.191 490.75 538.125C489.237 536.118 486.382 535.706 484.375 537.219C483.426 537.948 484.284 538.079 483.438 537.969C483.064 537.92 482.836 538.405 482.531 538.625C482.229 538.842 481.9 539.069 481.594 539.281C480.699 539.901 479.801 540.49 478.875 541.062C474.781 543.597 470.418 545.648 466.188 547.938C461.883 550.267 457.705 552.902 454.344 556.5C450.623 560.483 448.165 565.351 446.656 570.562C444.865 576.751 444.687 582.893 447.594 588.781C449.182 591.998 451.461 594.827 454.062 597.281C456.156 599.257 458.286 601.538 460.844 602.906C463.933 604.558 467.713 604.47 471.094 604C474.728 603.495 478.375 602.42 481.688 600.844C484.381 599.562 486.898 597.971 489.469 596.469C495.066 593.199 501.59 590.979 506.219 586.281C509.892 582.553 511.715 577.395 512.656 572.344C514.222 563.948 513.673 554.199 510.312 546.281C508.128 541.134 504.066 535.967 497.969 536.094ZM497.969 536.625C503.212 536.754 506.704 541.035 508.625 545.531C510.328 549.517 511.094 553.879 511.344 558.188C511.635 563.219 511.217 568.352 509.875 573.219C508.79 577.155 507.061 581.158 504 583.969C501.192 586.548 497.6 588.127 494.156 589.656C491.892 590.661 489.668 591.671 487.469 592.812C484.94 594.124 482.453 595.542 479.812 596.625C476.88 597.828 473.69 598.58 470.531 598.844C468.595 599.005 466.287 599.08 464.438 598.375C462.975 597.817 461.857 596.481 460.812 595.375C459.795 594.298 458.724 593.272 457.75 592.156C455.405 589.469 453.533 586.283 452.844 582.75C452.022 578.536 453.017 574.621 454.719 570.75C456.206 567.368 458.223 564.214 460.938 561.688C465.399 557.533 471.147 555.192 476.531 552.5C480.013 550.759 483.446 548.912 486.688 546.75C487.044 546.512 487.398 546.276 487.75 546.031C488.11 545.781 487.734 546.029 489.844 544.5C491.714 543.09 492.138 540.531 490.969 538.562C493.143 537.444 495.508 536.564 497.969 536.625Z" fill="#000000" stroke="none"/>
</g>
<g opacity="1">
<path d="M397.344 598.156C396.753 598.17 396.135 598.274 395.562 598.531C393.271 599.562 392.251 602.271 393.281 604.562C396.684 611.701 400.421 618.741 403.406 626.062C405.404 630.962 407.487 636.005 407.219 641.406C406.958 646.669 404.719 651.704 402.219 656.25C399.028 662.052 395.129 667.453 391.719 673.125C396.147 667.399 401.094 662.043 405.188 656.062C408.285 651.537 410.886 646.563 411.75 641.094C412.301 637.609 412.008 634.062 411.469 630.594C410.747 625.951 409.449 621.471 408.031 617C406.278 611.473 403.849 606.146 401.594 600.812C400.821 599.094 399.116 598.116 397.344 598.156Z" fill="#000000" stroke="none"/>
</g>
<g opacity="1">
<path d="M337.062 666.562C334.596 667.043 332.989 669.44 333.469 671.906C337.535 691.593 341.839 711.256 345.094 731.094C345.528 733.74 346.199 736.302 346.812 738.906C347.294 740.95 347.71 743.097 348.562 745.031C349.342 746.799 350.74 747.922 352.75 747.062C352.948 746.978 353.116 746.857 353.281 746.719C354.069 746.062 354.398 744.921 354.625 743.969C354.992 742.426 354.988 740.845 354.781 739.281C354.446 736.745 353.572 734.312 353.219 731.781C352.764 728.523 352.795 725.129 352.719 721.844C352.634 718.186 352.651 714.533 352.688 710.875C352.734 706.267 352.887 701.743 354.031 697.25C356.405 687.928 361.672 679.615 366.062 671.156C361.12 679.434 355.331 687.511 352.375 696.781C350.917 701.354 350.474 705.993 350.125 710.75C349.97 712.854 349.842 714.956 349.719 717.062C349.666 716.626 349.649 716.186 349.594 715.75C348.962 710.773 348.429 705.775 347.688 700.812C346.155 690.558 344.272 680.354 342.406 670.156C341.926 667.69 339.529 666.082 337.062 666.562Z" fill="#000000" stroke="none"/>
</g>
<g opacity="1">
<path d="M483.469 653.312C480.173 668.332 475.509 683.034 469.188 697.062C467.348 701.145 465.369 705.149 463.25 709.094C461.348 712.636 459.312 716.095 457.562 719.719C455.654 723.672 453.935 727.73 451.906 731.625C451.094 733.185 450.194 734.686 449.281 736.188C449.587 733.292 449.871 730.398 450.156 727.5C450.897 719.971 452.157 712.478 452.812 704.938C453.699 694.74 453.686 684.507 453.938 674.281C453.975 671.769 451.95 669.694 449.438 669.656C446.925 669.619 444.881 671.644 444.844 674.156C444.79 684.238 444.924 694.301 444.438 704.375C444.159 710.146 443.819 715.925 443.406 721.688C443.11 725.822 442.731 729.948 442.625 734.094C442.509 738.61 442.438 743.141 442.625 747.656C442.675 748.867 442.442 750.77 443.25 751.844C443.488 752.16 443.75 752.491 444.094 752.688C444.569 752.959 445.11 753.151 445.656 753.188C446.128 753.219 446.589 753.073 447.031 752.906C448.669 752.29 449.38 749.174 449.844 747.719C449.977 747.3 450.15 746.825 450.281 746.406C450.486 745.753 450.663 745.089 450.875 744.438C451.112 743.709 451.386 742.909 451.656 742.188C452.079 741.058 452.631 739.974 453.188 738.906C453.877 737.583 454.598 736.28 455.25 734.938C455.966 733.463 456.596 731.953 457.219 730.438C458.887 726.378 460.406 722.249 462.219 718.25C463.408 715.625 464.746 713.078 465.969 710.469C468.282 705.535 470.396 700.507 472.312 695.406C477.434 681.778 481.067 667.664 483.469 653.312Z" fill="#000000" stroke="none"/>
</g>
<g opacity="1">
<path d="M336.156 662.281C333.643 662.274 331.601 664.3 331.594 666.812C331.586 669.325 333.612 671.399 336.125 671.406C349.748 671.297 363.379 671.684 377 671.844C380.164 671.881 383.336 672.072 386.5 672.094C392.314 672.134 398.124 672.084 403.938 672.031C408.108 671.993 412.268 672.014 416.438 671.875C427.85 671.494 439.232 670.442 450.594 669.344C454.368 668.979 458.162 668.634 461.938 668.281C464.205 668.07 466.474 667.798 468.75 667.719C474.172 667.53 479.536 668.324 484.906 668.938C488.009 669.292 491.101 669.547 494.219 669.719C491.122 669.369 488.04 668.937 484.969 668.406C479.581 667.475 474.205 666.373 468.719 666.25C466.411 666.198 464.118 666.324 461.812 666.406C458.022 666.542 454.228 666.708 450.438 666.844C439.12 667.249 427.76 667.591 416.438 667.188C406.537 666.835 396.681 665.959 386.812 665.125C383.666 664.859 380.521 664.705 377.375 664.438C374.221 664.169 371.064 663.852 367.906 663.625C357.342 662.866 346.746 662.429 336.156 662.281Z" fill="#000000" stroke="none"/>
</g>
<g opacity="1">
<path d="M423 645.125C422.409 645.14 421.822 645.272 421.25 645.531C418.96 646.567 417.933 649.273 418.969 651.562C421.118 649.712 421.908 649.134 421.125 649.688C420.336 650.246 419.722 651.021 419.125 651.781C419.064 651.86 419.233 651.975 419.281 652.062C419.341 652.172 419.411 652.264 419.469 652.375C419.85 653.1 420.204 653.881 420.656 654.562C421.065 655.179 421.472 655.785 421.875 656.406C422.406 657.225 423.133 658.05 423.781 658.781C423.959 658.981 424.432 659.483 424.719 659.594C425.295 659.817 425.907 659.95 426.5 660.125C426.864 660.232 427.553 659.849 427.844 659.656C429.354 658.656 429.104 656.961 428.469 655.312C428.51 654.869 428.524 654.195 428.5 653.969C428.464 653.634 428.373 653.305 428.344 652.969C428.312 652.596 428.348 652.216 428.312 651.844C428.245 651.13 428.052 650.386 427.875 649.688C427.788 649.347 427.701 649.022 427.594 648.688C427.541 648.524 427.567 648.248 427.406 648.188C426.727 647.933 427.427 648.216 427.281 647.812C426.505 646.095 424.773 645.081 423 645.125ZM425.281 647.812C424.723 647.878 424.208 648.194 423.75 648.531C422.804 648.688 423.758 648.519 423.281 647.844C425.279 647.819 426.002 647.727 425.281 647.812ZM424.406 655.812C424.394 655.863 424.42 655.918 424.406 655.969C424.382 656.057 424.149 656.793 424 656.688C423.974 656.669 423.956 656.654 423.969 656.625C424.093 656.349 424.258 656.077 424.406 655.812Z" fill="#000000" stroke="none"/>
</g>
<g opacity="1">
<path d="M149 672.594C147.842 672.472 146.664 672.772 145.688 673.562C143.734 675.143 143.419 678.015 145 679.969C150.671 686.886 155.48 694.498 161.656 701C164.517 704.012 167.675 706.797 171.25 708.938C180.725 714.61 191.952 714.384 202.375 716.969C207.469 718.232 212.479 719.785 217.469 721.406C228.07 724.85 238.47 728.717 248.312 734C254.046 737.078 259.621 740.542 265.031 744.156C272.668 749.258 280.073 754.914 286.25 761.75C288.233 763.945 290.218 766.244 291.656 768.844C292.938 771.16 293.624 773.734 294.875 776.062C296.25 778.623 298.226 780.858 300.531 782.625C303.814 785.141 307.63 786.983 311.406 788.625C314.935 790.16 318.633 791.653 322.406 792.469C324.763 792.978 327.145 792.346 329.5 792.719C330.627 792.897 331.678 793.368 332.719 793.812C339.765 796.825 345.859 801.6 352.406 805.5C362.129 811.292 372.499 816.123 383 820.312C372.667 815.801 362.505 810.646 353 804.562C346.51 800.409 340.492 795.428 333.469 792.156C332.296 791.61 331.093 791.028 329.812 790.781C327.521 790.341 325.148 790.919 322.875 790.344C319.278 789.433 315.809 787.902 312.469 786.312C308.958 784.641 305.393 782.794 302.375 780.312C300.471 778.747 298.873 776.774 297.781 774.562C296.724 772.42 296.139 770.071 295.125 767.906C293.63 764.714 291.416 761.901 289.156 759.219C283.455 752.45 276.646 746.673 269.562 741.406C263.64 737.003 257.443 732.856 251.094 729.094C239.5 722.225 227.079 717.043 214.312 712.812C210.62 711.589 206.928 710.352 203.188 709.281C199.121 708.117 194.963 707.414 190.812 706.625C185.614 705.637 180.27 704.487 175.719 701.656C171.49 699.026 168.046 695.212 164.938 691.375C160.44 685.824 156.522 679.831 152.062 674.25C151.272 673.273 150.158 672.716 149 672.594Z" fill="#000000" stroke="none"/>
</g>
<g opacity="1">
<path d="M306.5 759.031C309.667 766.495 312.55 774.636 318.25 780.625C321.361 783.893 325.386 786.168 329.438 788.062C335.391 790.847 341.688 792.753 347.781 795.188C353.997 797.671 360.052 800.563 366.375 802.781C371.689 804.645 377.131 805.968 382.75 806.469C394.421 807.509 406.235 805.23 417.156 801.156C420.222 800.013 423.221 798.626 426.188 797.25C430.409 795.291 434.581 793.317 438.688 791.125C445.27 787.611 452.228 784.483 458.312 780.125C462.066 777.437 464.952 773.843 468.219 770.625C469.991 768.843 469.969 765.96 468.188 764.188C466.406 762.415 463.522 762.437 461.75 764.219C458.888 767.149 456.395 770.535 453.094 773C449.588 775.618 445.692 777.695 441.875 779.812C439.048 781.381 436.256 782.987 433.469 784.625C429.59 786.905 425.724 789.227 421.719 791.281C419.756 792.288 417.728 793.186 415.719 794.094C405.295 798.8 394.612 802.003 383.062 801.656C379.327 801.544 375.61 801.06 371.969 800.219C364.006 798.38 356.496 795.118 348.781 792.5C342.12 790.24 335.243 788.609 328.781 785.781C325.307 784.261 321.859 782.417 319.094 779.781C313.191 774.155 309.979 766.229 306.5 759.031Z" fill="#000000" stroke="none"/>
</g>
<g opacity="1">
<path d="M334.781 711.5C332.271 711.613 330.356 713.74 330.469 716.25C330.727 719.275 330.92 722.349 331.438 725.344C332.268 730.145 333.3 734.915 334.125 739.719C335.254 746.291 336.128 752.879 336.906 759.5C337.516 752.836 337.951 746.175 338.406 739.5C338.738 734.631 339.172 729.744 339.469 724.875C339.652 721.873 339.578 718.85 339.562 715.844C339.449 713.333 337.292 711.387 334.781 711.5Z" fill="#000000" stroke="none"/>
</g>
<g opacity="1">
<path d="M411.906 717.344C409.393 717.357 407.362 719.425 407.375 721.938C407.509 724.181 407.567 726.471 407.969 728.688C408.614 732.253 409.482 735.758 410.188 739.312C411.149 744.156 411.944 749.026 412.688 753.906C413.334 748.997 413.875 744.068 414.5 739.156C414.954 735.587 415.548 732.031 416.031 728.469C416.327 726.291 416.361 724.068 416.469 721.875C416.455 719.362 414.419 717.33 411.906 717.344Z" fill="#000000" stroke="none"/>
</g>
<g opacity="1">
<path d="M473.375 723C472.792 722.903 472.174 722.916 471.562 723.062C469.118 723.647 467.603 726.087 468.188 728.531C468.834 730.723 469.363 732.972 470.031 735.156C470.98 738.257 471.825 741.404 472.438 744.594C473.527 750.264 474.025 756.037 474.531 761.781C475.46 756.506 476.354 751.221 477.031 745.906C477.535 741.95 478.005 737.993 478 734C477.997 731.451 477.531 728.932 477.062 726.438C476.624 724.604 475.124 723.292 473.375 723Z" fill="#000000" stroke="none"/>
</g>
<g opacity="1">
<path d="M307.688 565.188C306.876 565.276 306.069 565.576 305.375 566C301.967 568.08 302.166 572.508 302.344 575.969C302.372 576.523 302.497 577.118 302.562 577.688C301.382 576.569 299.682 576.074 298.031 576.625C295.648 577.421 294.36 580.023 295.156 582.406C296.302 585.657 296.464 589.204 298.344 592.188C301.739 597.574 309.583 599.011 314.25 594.906C314.799 595.108 315.331 595.355 315.875 595.531C317.847 596.17 319.92 596.573 322 596.344C329.059 595.565 331.115 586.734 328.25 581.188C327.391 579.525 326.074 577.81 324.219 577.219C323.73 577.063 323.241 577.065 322.781 577.094C322.775 577.01 322.755 576.927 322.75 576.844C322.75 576.927 322.749 577.011 322.75 577.094C321.103 577.21 319.697 578.338 318.938 579.875C318.609 580.54 318.442 581.255 318.25 581.969C318.217 580.694 318.115 579.424 317.75 578.156C317.146 576.057 316.055 574.203 315.188 572.219C314.073 569.668 313.035 566.667 310.219 565.531C309.415 565.207 308.549 565.094 307.688 565.188ZM308.562 575.156C308.807 575.782 309.052 576.41 309.312 577.031C309.825 578.252 310.257 579.577 310.344 580.906C310.422 582.106 310.196 583.356 310 584.562C309.118 582.481 308.582 580.226 308.438 578.219C308.366 577.222 308.503 576.189 308.562 575.156ZM323 579.562C323.368 579.616 323.752 579.782 324.156 580.156C324.817 580.767 325.307 581.619 325.656 582.438C326.631 584.722 326.489 587.145 325.562 589.438C325.133 590.501 324.348 591.648 323.25 592.094C322.642 592.34 322.019 592.434 321.375 592.438C321.786 591.518 322.03 590.497 322.219 589.531C322.535 587.915 322.717 586.279 323 584.656C323.295 582.964 323.167 581.259 323 579.562ZM322.781 579.594C322.82 580.625 322.891 581.662 322.812 582.688C322.715 583.96 322.325 585.193 322.062 586.438C321.757 587.886 321.496 589.351 321 590.75C320.814 591.273 320.568 591.794 320.281 592.281C319.502 592.162 318.781 591.912 318.031 591.625C318.051 591.491 318.042 591.35 318.062 591.219C318.112 590.903 318.188 590.595 318.25 590.281C318.583 588.583 319.061 586.931 319.469 585.25C319.798 583.893 320.115 582.473 320.75 581.219C321.248 580.236 321.947 579.602 322.781 579.594Z" fill="#000000" stroke="none"/>
</g>
<g opacity="1">
<path d="M468.031 578.656C466.868 578.599 465.712 579 464.781 579.844C464.654 579.984 465.224 580.428 464.625 579.969C464.625 579.969 464.074 580.634 464 580.719C463.466 581.335 462.916 581.983 462.5 582.688C462.336 582.965 462.225 583.303 462.031 583.562C461.498 584.275 461.138 584.956 461.062 585.906C461.042 586.163 461.082 586.431 461.094 586.688C461.128 586.845 461.129 587.006 461.188 587.156C461.478 587.902 461.926 588.639 462.562 589.125C463.118 589.548 463.734 589.724 464.406 589.812C466.458 590.082 467.328 588.728 468.188 587.219C468.141 587.384 468.168 587.55 468.094 587.719C468.015 587.898 467.773 588.338 467.688 588.438C467.63 588.505 467.475 588.669 467.562 588.656C468.447 588.529 469.337 587.696 470.031 587.188C470.217 587.051 470.407 586.917 470.594 586.781C470.644 586.744 470.586 586.771 470.875 586.562C472.443 585.143 472.716 582.917 471.781 581.125C471.947 580.822 472.04 580.519 471.781 580.094C471.717 579.988 471.656 579.894 471.562 579.812C471.477 579.738 471.351 579.677 471.25 579.625C471.207 579.602 471.138 579.547 471.125 579.594C471.145 579.519 470.983 579.565 470.906 579.562C470.765 579.558 470.707 579.681 470.594 579.719C469.835 579.118 468.957 578.702 468.031 578.656ZM463.281 582.938C463.06 583.038 462.818 583.126 462.594 583.219C462.572 583.228 462.513 583.202 462.531 583.188C462.741 583.027 463.039 583.048 463.281 582.938Z" fill="#000000" stroke="none"/>
</g>
<g opacity="1">
<path d="M541.594 537.188C539.082 537.27 537.105 539.364 537.188 541.875C537.604 551.622 538.148 561.367 538.906 571.094C539.554 579.403 540.39 587.696 541.094 596C541.615 602.149 542.385 608.271 542.688 614.438C543.187 624.623 542.653 634.973 540.75 645C536.082 669.599 523.111 691.264 509.344 711.781C523.684 692.596 537.301 672.284 543.75 648.938C546.855 637.695 548.258 626.018 548.5 614.375C548.669 606.254 548.28 598.111 547.969 590C547.809 585.836 547.753 581.695 547.594 577.531C547.136 565.553 546.56 553.579 546.281 541.594C546.198 539.082 544.105 537.105 541.594 537.188Z" fill="#000000" stroke="none"/>
</g>
<g opacity="1">
<path d="M287.844 768.75C287.255 768.803 286.648 768.985 286.094 769.281C283.877 770.465 283.035 773.221 284.219 775.438C288.015 782.284 290.314 789.615 291.781 797.281C292.158 799.25 292.522 801.226 292.75 803.219C292.981 805.239 293.05 807.285 293.188 809.312C293.954 820.642 292.93 831.965 290.938 843.125C290.089 847.877 289.128 852.623 288.125 857.344C287.673 859.473 287.108 861.581 286.562 863.688C286.371 864.427 286.227 865.2 285.906 865.906C284.987 867.929 283.272 869.53 282.5 871.625C282.217 872.393 282.086 873.28 282.562 874C282.892 874.498 283.464 874.868 284.031 875.031C285.882 875.564 287.656 874.011 288.938 872.906C289.202 872.678 289.457 872.419 289.719 872.188C290.192 871.768 290.785 871.239 291.281 870.844C291.767 870.457 292.282 870.134 292.812 869.812C291.934 870.255 291.138 870.761 290.344 871.344C289.783 871.756 289.248 872.182 288.688 872.594C287.513 873.455 285.553 875.035 284 874.125C283.752 873.979 283.484 873.788 283.344 873.531C282.833 872.597 283.881 871.336 284.375 870.656C285.435 869.199 286.797 867.874 287.562 866.219C288.085 865.089 288.407 863.831 288.812 862.656C289.534 860.565 290.18 858.463 290.812 856.344C292.191 851.724 293.537 847.073 294.75 842.406C296.617 835.221 298.133 827.956 299.094 820.594C299.655 816.291 300.127 811.936 300.188 807.594C300.21 805.959 300.115 804.321 300.062 802.688C299.92 798.306 299.597 793.997 298.75 789.688C297.477 783.207 295.271 777.022 292.25 771.156C291.362 769.494 289.61 768.59 287.844 768.75Z" fill="#000000" stroke="none"/>
</g>
<g opacity="1">
<path d="M432.875 786.938C431.116 786.718 429.319 787.556 428.375 789.188C425.288 794.747 422.578 800.495 420.469 806.5C419.649 808.832 418.984 811.177 418.344 813.562C417.889 815.259 417.371 816.946 416.969 818.656C415.367 825.472 414.348 832.482 413.594 839.438C411.878 855.268 411.862 871.17 412.531 887.062C413.282 872.02 414.558 856.953 417.656 842.188C419.124 835.191 421.006 828.296 423.406 821.562C424.08 819.674 424.661 817.769 425.406 815.906C428.465 808.263 432.002 800.804 436.25 793.75C437.508 791.575 436.769 788.79 434.594 787.531C434.05 787.217 433.461 787.011 432.875 786.938Z" fill="#000000" stroke="none"/>
</g>
<g opacity="1">
<path d="M284.625 854.531C283.48 854.743 282.4 855.402 281.688 856.438C277.052 863.368 272.721 870.473 268.094 877.406C266.132 880.346 264.2 883.297 262.406 886.344C259.525 891.238 257.267 896.105 257.188 901.906C257.041 912.594 264.152 921.696 274.25 924.812C278.356 926.08 282.499 926.13 286.719 925.5C289.159 925.136 291.664 924.691 293.781 923.344C297.127 921.216 298.915 917.477 300.875 914.188C302.466 911.518 304.005 908.856 305.312 906.031C307.636 901.01 309.369 895.735 310.938 890.438C309.024 895.585 306.926 900.708 304.281 905.531C302.808 908.219 301.117 910.734 299.375 913.25C297.432 916.057 295.624 919.479 292.5 921.156C290.202 922.39 287.407 922.446 284.875 922.594C275.219 923.157 265.323 917.162 263.531 907.219C263.237 905.587 263.164 903.899 263.344 902.25C263.666 899.288 264.894 896.614 266.312 894.031C268.491 890.065 271.391 886.646 274.125 883.062C279.426 876.115 284.142 868.727 289.188 861.594C290.612 859.523 290.102 856.674 288.031 855.25C286.996 854.538 285.77 854.32 284.625 854.531Z" fill="#000000" stroke="none"/>
</g>
<g opacity="1">
<path d="M417.656 858.375C416.506 858.558 415.425 859.202 414.688 860.219C413.212 862.253 413.653 865.087 415.688 866.562C421.556 870.68 427.153 875.1 432.125 880.281C434.087 882.326 436.154 884.445 437.594 886.906C441.449 893.497 444.229 902.195 442.125 909.812C441.689 911.39 441.003 912.889 440 914.188C439.105 915.347 437.957 916.357 436.781 917.219C435.746 917.977 434.528 918.733 433.219 918.875C431.274 919.086 429.254 918.194 427.594 917.281C424.15 915.388 421.033 912.796 418.781 909.562C415.265 904.513 413.783 898.416 412.469 892.5C413.314 898.639 414.34 904.938 417.5 910.375C419.866 914.445 423.747 918.161 427.906 920.406C429.815 921.437 432.025 922.186 434.219 921.906C436.355 921.634 438.297 920.523 440.031 919.312C440.88 918.72 441.692 918.095 442.438 917.375C443.809 916.05 444.915 914.46 445.75 912.75C448.872 906.353 448.502 898.564 446.938 891.812C446.378 889.398 445.662 886.993 444.594 884.75C443.668 882.807 442.491 880.982 441.312 879.188C436.051 871.177 428.633 864.885 421.031 859.188C420.014 858.45 418.806 858.192 417.656 858.375Z" fill="#000000" stroke="none"/>
</g>
<g opacity="1">
<path d="M334 866.562C331.487 866.539 329.43 868.55 329.406 871.062C329.404 877.762 328.901 884.407 328.156 891.062C327.092 900.575 325.644 910.052 325.25 919.625C325.126 922.628 324.774 925.65 324.938 928.656C325.259 934.557 327.059 940.576 330.625 945.344C331.957 947.125 333.524 948.709 335.312 950.031C336.573 950.963 337.956 951.745 339.406 952.344C348.375 956.045 356.747 950.386 364.469 946.344C369.959 943.47 375.615 940.9 379.781 936.156C384.956 930.264 387.739 922.52 389.406 914.969C390.857 908.401 391.473 901.685 391.625 894.969C391.793 887.57 391.353 880.158 390.219 872.844C391.101 881.117 391.107 889.467 390.344 897.75C389.741 904.299 388.651 910.838 386.688 917.125C384.564 923.922 381.339 930.861 375.812 935.562C371.973 938.829 367.211 940.609 362.688 942.688C361.539 943.215 360.391 943.768 359.25 944.312C353.804 946.913 347.059 950.315 341.156 947.125C340.153 946.583 339.212 945.899 338.375 945.125C337.312 944.142 336.382 943.06 335.594 941.844C331.857 936.077 331.796 929.035 332.438 922.438C332.727 919.454 333.11 916.525 333.562 913.562C335.712 899.495 338.235 885.386 338.5 871.125C338.524 868.612 336.513 866.587 334 866.562Z" fill="#000000" stroke="none"/>
</g>
<g opacity="1">
<path d="M336.031 939.75C335.192 939.928 335.831 940.423 335.188 939.938C334.901 939.721 334.493 940.126 334.156 940.25C333.541 940.476 332.876 940.821 332.312 941.156C329.786 942.662 328.001 945.083 326.562 947.594C325.626 949.228 324.85 950.931 323.969 952.594C322.57 955.232 321.16 957.804 320 960.562C319.037 962.852 318.274 965.207 317.406 967.531C316.556 969.809 315.536 972.028 314.625 974.281C314.154 975.446 313.133 976.412 312.406 977.406C310.851 979.535 309.809 982.071 310.906 984.656C312.465 988.327 316.918 988.864 320.375 989.219C324.559 989.648 329.358 989.835 333.25 987.875C335.805 986.588 337.336 984.143 339.125 982.031C340.449 980.467 341.884 978.968 342.875 977.156C344.915 973.424 344.415 968.514 344.406 964.406C344.404 963.239 344.437 962.068 344.562 960.906C344.756 959.113 345.113 957.312 344.969 955.5C344.848 953.986 344.208 952.63 343.625 951.25C343.172 950.179 342.723 949.11 342.156 948.094C341.797 947.449 341.377 946.814 340.906 946.219C341.331 945.358 341.54 944.39 341.344 943.375C340.867 940.908 338.498 939.273 336.031 939.75ZM340.719 946.625C341.79 948.286 342.453 950.195 343.062 952.062C343.361 952.978 343.696 953.909 343.781 954.875C344.002 957.365 343.045 959.77 342.781 962.219C342.349 966.234 342.56 970.456 341.188 974.312C340.391 976.551 338.272 978.139 336.656 979.75C335.288 981.114 334.117 982.761 332.469 983.812C329.94 985.425 325.626 985.025 322.875 984.562C321.063 984.258 318.518 983.895 316.875 983C316.052 982.552 316.361 982.652 316.688 982.188C316.772 982.067 316.842 981.955 316.938 981.844C317.392 981.313 317.918 980.811 318.406 980.312C320.339 978.339 321.415 976.378 322.625 973.844C324.448 970.027 326.214 966.181 328.188 962.438C329.643 959.677 331.353 957.068 332.875 954.344C333.776 952.731 334.661 950.991 335.969 949.656C336.238 949.381 336.533 949.119 336.875 948.938C336.973 948.886 337.111 948.815 337.219 948.781C337.264 948.767 337.226 948.78 337.75 948.688C339.043 948.437 340.073 947.661 340.719 946.625Z" fill="#000000" stroke="none"/>
</g>
<g opacity="1">
<path d="M384.688 924.906C386.83 925.493 388.989 925.984 391.156 926.469C397.074 927.793 403.715 929.531 406.625 935.406C407.93 938.041 408.251 941.01 408.438 943.906C408.711 948.156 408.313 952.352 407.312 956.5C406.619 959.376 405.68 962.155 404.25 964.75C403.328 966.423 402.584 968.195 401.562 969.812C401.473 969.953 401.268 970.124 401.125 970.344C400.954 970.217 400.781 970.117 400.625 969.938C399.136 968.235 398.39 965.423 397.719 963.312C397.23 961.775 396.754 960.23 396.188 958.719C395.819 957.736 395.399 956.777 395.062 955.781C394.149 953.076 393.672 950.201 392.969 947.438C392.307 945.013 389.799 943.588 387.375 944.25C384.951 944.912 383.525 947.42 384.188 949.844C385.061 952.823 385.683 955.883 386.812 958.781C387.578 960.745 388.522 962.655 389.281 964.625C389.881 966.18 390.496 967.746 391.219 969.25C391.78 970.417 392.253 971.311 393 972.375C395.26 975.595 399.654 979.527 403.812 977.281C404.277 977.031 404.776 976.648 405.156 976.281C407.577 973.945 408.278 970.225 409.469 967.219C411.097 963.11 411.902 958.775 412.219 954.375C412.482 950.719 412.351 947.143 411.75 943.531C411.141 939.87 410.212 936.217 407.969 933.188C402.629 925.976 392.681 926.32 384.688 924.906Z" fill="#000000" stroke="none"/>
</g>
<g opacity="1">
<path d="M787.969 328.625C786.685 328.519 785.387 328.531 784.094 328.656C782.701 328.792 781.32 329.053 780 329.531C775.326 331.224 773.106 335.585 773.188 340.375C773.205 341.388 773.314 342.468 773.625 343.438C774.051 344.768 774.669 346.042 775.469 347.188C776.588 348.79 778.163 350.058 779.156 351.75C780.987 354.87 782.69 358.068 784.406 361.25C779.599 364.002 774.864 366.899 771 370.875C768.407 373.544 764.688 376.886 766.219 381C766.962 382.999 768.55 384.501 770 386C771.351 387.397 772.763 388.68 774.438 389.688C779.281 392.601 785.35 393.115 790.469 390.594C791.74 389.968 792.904 389.222 793.844 388.156C795.025 386.818 795.968 385.226 797.312 384.094C797.389 384.205 797.452 384.328 797.531 384.438C797.894 384.944 798.14 385.589 798.656 385.938C799.708 386.646 800.89 387.242 802.125 387.531C802.791 387.688 803.49 387.376 804.156 387.219C804.52 387.133 804.847 386.967 805.188 386.812C807.724 385.657 809.244 382.827 807.969 380.219C807.892 380.063 807.777 379.899 807.688 379.75C807.647 379.682 807.62 379.56 807.562 379.562C807.569 379.558 807.559 379.537 807.562 379.531C807.6 379.469 807.438 379.384 807.375 379.312C807.094 378.991 806.93 378.818 806.594 378.562C806.124 378.207 805.422 377.795 804.812 377.75C804.517 377.728 804.209 377.709 803.875 377.688C803.544 377.186 803.203 376.67 802.906 376.188C801.543 373.97 800.339 371.687 799.031 369.438C797.287 366.437 795.512 363.428 793.75 360.438C793.889 360.372 794.017 360.283 794.156 360.219C798.161 358.38 802.8 357.61 804.531 352.969C805.484 350.414 805.34 347.433 804.906 344.781C803.754 337.738 798.64 331.49 791.781 329.344C790.536 328.954 789.253 328.731 787.969 328.625ZM788.062 335C793.876 335.358 798.672 339.862 799.969 345.688C800.374 347.509 800.842 350.472 799.875 352.188C799.02 353.705 797.188 354.484 795.688 355.156C794.348 355.757 793.065 356.407 791.781 357.094C791.513 356.635 791.237 356.177 790.969 355.719C789.668 353.491 788.339 351.29 786.938 349.125C786.429 348.339 785.875 347.39 785.281 346.625C784.147 345.165 782.687 344.006 781.469 342.625C779.826 340.764 780.055 337.028 782.5 335.906C783.449 335.471 784.473 335.275 785.5 335.125C786.364 334.998 787.232 334.949 788.062 335ZM786.094 364.344C786.484 365.065 786.888 365.78 787.281 366.5C788.613 368.936 790.006 371.318 791.344 373.75C793.092 376.93 794.727 380.179 796.719 383.219C796.862 383.438 797.01 383.658 797.156 383.875C795.568 385.16 794.462 386.847 792.938 388.219C791.897 389.155 790.554 389.779 789.25 390.25C784.287 392.044 778.712 390.997 774.531 387.844C773.341 386.946 772.323 385.866 771.344 384.75C770.083 383.314 767.909 381.172 768.062 379.062C768.19 377.313 769.497 376.035 770.688 374.875C772.125 373.475 773.563 372.069 775.156 370.844C778.523 368.254 782.309 366.263 786.094 364.344ZM800.094 384.75C800.124 384.793 800.156 384.834 800.188 384.875C800.181 384.88 800.163 384.87 800.156 384.875C800.12 384.901 800.116 384.805 800.094 384.75ZM804.25 386.469C804.3 386.383 804.293 386.379 804.125 386.719C804.114 386.74 804.076 386.702 804.062 386.719C804.102 386.694 804.204 386.548 804.25 386.469ZM802.688 386.562C803.124 386.67 803.559 386.78 804.031 386.75C803.782 386.975 803.238 386.654 802.844 386.625C802.798 386.622 802.737 386.572 802.688 386.562Z" fill="#000000" stroke="none"/>
</g>
</g>
<g id="Layer-4" vectornator:layerName="Layer 4"/>
</svg>
